<?xml version="1.0" standalone="no"?>
<!DOCTYPE svg PUBLIC "-//W3C//DTD SVG 20010904//EN"
 "http://www.w3.org/TR/2001/REC-SVG-20010904/DTD/svg10.dtd">
<svg version="1.0" xmlns="http://www.w3.org/2000/svg"
 width="248.000000pt" height="248.000000pt" viewBox="0 0 248.000000 248.000000"
 preserveAspectRatio="xMidYMid meet">
<metadata>
Created by potrace 1.16, written by Peter Selinger 2001-2019
</metadata><g><rect x="0" y="0" width="248" height="248" fill="#ffffff" rx="28" />
<g transform="translate(0.000000,248.000000) scale(0.050000,-0.050000)"
fill="#020304" stroke="none">
<path d="M480 3920 l0 -560 560 0 560 0 0 560 0 560 -560 0 -560 0 0 -560z
m960 0 l0 -400 -400 0 -400 0 0 400 0 400 400 0 400 0 0 -400z"/>
<path d="M800 3920 l0 -240 240 0 240 0 0 240 0 240 -240 0 -240 0 0 -240z"/>
<path d="M1920 4400 l0 -80 80 0 80 0 0 -80 0 -80 -160 0 -160 0 0 -80 0 -80
80 0 80 0 0 -80 0 -80 80 0 80 0 0 -80 0 -80 -80 0 -80 0 0 -80 0 -80 -80 0
-80 0 0 -160 0 -160 -320 0 -320 0 0 -80 0 -80 -80 0 -80 0 0 80 0 80 -240 0
-240 0 0 -80 0 -80 240 0 240 0 0 -80 0 -80 80 0 80 0 0 -80 0 -80 -80 0 -80
0 0 -80 0 -80 -80 0 -80 0 0 -80 0 -80 -80 0 -80 0 0 160 0 160 80 0 80 0 0
80 0 80 -80 0 -80 0 0 -80 0 -80 -80 0 -80 0 0 -160 0 -160 80 0 80 0 0 -80 0
-80 -80 0 -80 0 0 -80 0 -80 80 0 80 0 0 -80 0 -80 -80 0 -80 0 0 -80 0 -80
80 0 80 0 0 80 0 80 80 0 80 0 0 -80 0 -80 160 0 160 0 0 80 0 80 160 0 160 0
0 -80 0 -80 160 0 160 0 0 -320 0 -320 80 0 80 0 0 80 0 80 80 0 80 0 0 160 0
160 160 0 160 0 0 160 0 160 160 0 160 0 0 -80 0 -80 80 0 80 0 0 -160 0 -160
80 0 80 0 0 -240 0 -240 -160 0 -160 0 0 80 0 80 -80 0 -80 0 0 80 0 80 -80 0
-80 0 0 80 0 80 -80 0 -80 0 0 -80 0 -80 80 0 80 0 0 -80 0 -80 -160 0 -160 0
0 -80 0 -80 80 0 80 0 0 -80 0 -80 80 0 80 0 0 -80 0 -80 -160 0 -160 0 0 80
0 80 -80 0 -80 0 0 80 0 80 -80 0 -80 0 0 -240 0 -240 320 0 320 0 0 80 0 80
160 0 160 0 0 -80 0 -80 320 0 320 0 0 240 0 240 -80 0 -80 0 0 80 0 80 160 0
160 0 0 -80 0 -80 80 0 80 0 0 -160 0 -160 -80 0 -80 0 0 -80 0 -80 80 0 80 0
0 80 0 80 160 0 160 0 0 80 0 80 -80 0 -80 0 0 80 0 80 160 0 160 0 0 80 0 80
160 0 160 0 0 80 0 80 -160 0 -160 0 0 -80 0 -80 -80 0 -80 0 0 400 0 400 -80
0 -80 0 0 80 0 80 -80 0 -80 0 0 80 0 80 -80 0 -80 0 0 240 0 240 80 0 80 0 0
-80 0 -80 80 0 80 0 0 -160 0 -160 80 0 80 0 0 -80 0 -80 80 0 80 0 0 -80 0
-80 80 0 80 0 0 80 0 80 80 0 80 0 0 240 0 240 -80 0 -80 0 0 80 0 80 80 0 80
0 0 160 0 160 -80 0 -80 0 0 -80 0 -80 -160 0 -160 0 0 -80 0 -80 80 0 80 0 0
-160 0 -160 80 0 80 0 0 -80 0 -80 -160 0 -160 0 0 160 0 160 -80 0 -80 0 0
80 0 80 -80 0 -80 0 0 80 0 80 -80 0 -80 0 0 160 0 160 -160 0 -160 0 0 240 0
240 -80 0 -80 0 0 80 0 80 80 0 80 0 0 320 0 320 -400 0 -400 0 0 -80 0 -80
-160 0 -160 0 0 80 0 80 -80 0 -80 0 0 -80z m800 -320 l0 -240 -80 0 -80 0 0
-80 0 -80 160 0 160 0 0 -80 0 -80 80 0 80 0 0 -80 0 -80 -80 0 -80 0 0 -160
0 -160 80 0 80 0 0 -80 0 -80 80 0 80 0 0 80 0 80 80 0 80 0 0 -160 0 -160
-240 0 -240 0 0 -80 0 -80 -80 0 -80 0 0 80 0 80 -80 0 -80 0 0 -80 0 -80 -80
0 -80 0 0 -80 0 -80 -80 0 -80 0 0 -80 0 -80 -80 0 -80 0 0 80 0 80 -80 0 -80
0 0 80 0 80 -80 0 -80 0 0 -160 0 -160 80 0 80 0 0 -80 0 -80 240 0 240 0 0
-80 0 -80 -160 0 -160 0 0 -160 0 -160 -80 0 -80 0 0 80 0 80 -80 0 -80 0 0
80 0 80 -160 0 -160 0 0 80 0 80 80 0 80 0 0 80 0 80 -160 0 -160 0 0 -80 0
-80 -80 0 -80 0 0 80 0 80 -80 0 -80 0 0 -80 0 -80 -160 0 -160 0 0 80 0 80
160 0 160 0 0 80 0 80 160 0 160 0 0 80 0 80 -80 0 -80 0 0 80 0 80 80 0 80 0
0 -80 0 -80 80 0 80 0 0 80 0 80 320 0 320 0 0 80 0 80 -320 0 -320 0 0 80 0
80 240 0 240 0 0 80 0 80 80 0 80 0 0 -160 0 -160 160 0 160 0 0 160 0 160
-80 0 -80 0 0 160 0 160 -80 0 -80 0 0 -80 0 -80 -80 0 -80 0 0 80 0 80 80 0
80 0 0 80 0 80 80 0 80 0 0 80 0 80 80 0 80 0 0 80 0 80 -80 0 -80 0 0 80 0
80 80 0 80 0 0 -80 0 -80 80 0 80 0 0 160 0 160 80 0 80 0 0 -240z m-1440
-1120 l0 -80 -80 0 -80 0 0 80 0 80 80 0 80 0 0 -80z m1920 -640 l0 -80 160 0
160 0 0 -80 0 -80 80 0 80 0 0 -80 0 -80 -240 0 -240 0 0 160 0 160 -80 0 -80
0 0 -160 0 -160 -80 0 -80 0 0 80 0 80 -80 0 -80 0 0 80 0 80 -80 0 -80 0 0
80 0 80 320 0 320 0 0 -80z m480 -800 l0 -240 -240 0 -240 0 0 240 0 240 240
0 240 0 0 -240z m-960 -640 l0 -80 -80 0 -80 0 0 80 0 80 80 0 80 0 0 -80z
m480 0 l0 -80 -80 0 -80 0 0 80 0 80 80 0 80 0 0 -80z"/>
<path d="M2400 3360 l0 -160 80 0 80 0 0 -160 0 -160 80 0 80 0 0 -80 0 -80
80 0 80 0 0 160 0 160 -80 0 -80 0 0 160 0 160 80 0 80 0 0 80 0 80 -80 0 -80
0 0 -80 0 -80 -80 0 -80 0 0 80 0 80 -80 0 -80 0 0 -160z"/>
<path d="M2240 2640 l0 -80 80 0 80 0 0 80 0 80 -80 0 -80 0 0 -80z"/>
<path d="M1440 2480 l0 -80 80 0 80 0 0 80 0 80 -80 0 -80 0 0 -80z"/>
<path d="M3360 1520 l0 -80 80 0 80 0 0 80 0 80 -80 0 -80 0 0 -80z"/>
<path d="M3360 3920 l0 -560 560 0 560 0 0 560 0 560 -560 0 -560 0 0 -560z
m960 0 l0 -400 -400 0 -400 0 0 400 0 400 400 0 400 0 0 -400z"/>
<path d="M3680 3920 l0 -240 240 0 240 0 0 240 0 240 -240 0 -240 0 0 -240z"/>
<path d="M4000 3120 l0 -80 80 0 80 0 0 80 0 80 -80 0 -80 0 0 -80z"/>
<path d="M4160 1600 l0 -160 160 0 160 0 0 160 0 160 -160 0 -160 0 0 -160z"/>
<path d="M480 1040 l0 -560 560 0 560 0 0 560 0 560 -560 0 -560 0 0 -560z
m960 0 l0 -400 -400 0 -400 0 0 400 0 400 400 0 400 0 0 -400z"/>
<path d="M800 1040 l0 -240 240 0 240 0 0 240 0 240 -240 0 -240 0 0 -240z"/>
<path d="M2560 1520 l0 -80 80 0 80 0 0 80 0 80 -80 0 -80 0 0 -80z"/>
<path d="M4320 880 l0 -80 -80 0 -80 0 0 -160 0 -160 160 0 160 0 0 80 0 80
-80 0 -80 0 0 80 0 80 80 0 80 0 0 80 0 80 -80 0 -80 0 0 -80z"/>
</g>
</g></svg>
